<?xml version="1.0" standalone="no"?>
<!DOCTYPE svg PUBLIC "-//W3C//DTD SVG 20010904//EN"
 "http://www.w3.org/TR/2001/REC-SVG-20010904/DTD/svg10.dtd">
<svg version="1.0" xmlns="http://www.w3.org/2000/svg"
 width="1168.000000pt" height="1168.000000pt" viewBox="0 0 1168.000000 1168.000000"
 preserveAspectRatio="xMidYMid meet">
<metadata>
Created by potrace 1.14, written by Peter Selinger 2001-2017
</metadata>
<g transform="translate(0.000000,1168.000000) scale(0.100000,-0.100000)"
fill="#000000" stroke="none">
<path d="M6945 11144 c-27 -7 -53 -13 -56 -14 -4 0 -29 -21 -56 -47 -62 -59
-99 -119 -153 -248 -24 -55 -43 -101 -44 -102 -3 -4 -130 -20 -216 -28 -48 -4
-138 -29 -152 -43 -28 -24 -23 -66 11 -94 29 -25 45 -28 216 -32 64 -2 79 -5
77 -17 -2 -7 -21 -81 -42 -164 -20 -82 -54 -235 -75 -340 -21 -104 -42 -194
-46 -199 -5 -6 -21 -11 -36 -12 -16 -1 -64 -5 -108 -8 -165 -13 -311 -26 -345
-31 -14 -2 -54 -6 -90 -10 -82 -8 -182 -32 -196 -48 -27 -28 -25 -55 3 -86 25
-27 36 -31 113 -38 47 -5 206 -8 353 -8 147 0 267 -3 267 -7 0 -3 -9 -57 -19
-120 -28 -160 -28 -159 -50 -300 -12 -70 -24 -151 -27 -180 -8 -67 -19 -95
-36 -95 -20 0 -265 -14 -333 -18 -33 -2 -100 -7 -150 -10 -397 -25 -537 -39
-605 -60 -23 -7 -44 -57 -35 -84 7 -22 32 -40 68 -47 49 -9 323 -17 672 -18
312 -1 370 -3 367 -15 -2 -8 -5 -32 -8 -55 -3 -23 -9 -72 -15 -111 -5 -38 -12
-83 -14 -100 -2 -16 -9 -64 -15 -105 -5 -41 -12 -93 -15 -115 -13 -111 -25
-188 -29 -193 -5 -5 -108 -10 -334 -17 -111 -3 -235 -8 -275 -10 -39 -2 -139
-6 -222 -10 -486 -19 -642 -32 -677 -57 -47 -33 -32 -94 27 -112 44 -13 288
-18 858 -18 l599 -1 -6 -41 c-3 -22 -8 -63 -11 -91 -3 -27 -8 -61 -10 -75 -2
-14 -7 -52 -11 -85 -3 -33 -8 -68 -10 -79 -2 -10 -6 -44 -9 -75 -4 -31 -8 -67
-10 -81 -2 -14 -7 -52 -11 -85 -8 -76 -12 -96 -18 -103 -6 -6 -87 -8 -596 -17
-1092 -18 -1429 -28 -1460 -45 -42 -23 -37 -93 8 -113 19 -8 309 -12 1027 -14
935 -4 1000 -5 999 -21 -4 -52 -17 -168 -19 -172 -2 -3 -6 -35 -9 -71 -4 -36
-9 -76 -11 -90 -2 -13 -11 -89 -20 -169 -9 -80 -18 -156 -20 -170 -2 -14 -4
-35 -4 -47 l-1 -23 -1922 0 c-1057 0 -1923 -2 -1926 -5 -9 -9 -7 -115 3 -118
6 -1 868 -2 1918 -2 l1907 1 -5 -50 c-9 -80 -25 -218 -30 -246 -2 -14 -6 -54
-10 -90 -3 -36 -8 -72 -10 -80 -2 -8 -6 -42 -10 -75 -7 -77 -24 -211 -30 -251
l-5 -31 -118 3 c-64 2 -286 5 -492 8 -206 3 -575 9 -820 13 -565 9 -2380 10
-2483 2 -87 -8 -117 -25 -117 -69 0 -32 33 -70 63 -71 12 0 33 -2 47 -4 184
-24 2534 -71 3722 -74 163 -1 177 -2 173 -18 -1 -10 -6 -47 -10 -83 -3 -36 -8
-76 -10 -90 -5 -29 -53 -413 -61 -480 -10 -95 -1 -89 -116 -84 -138 5 -385 12
-653 20 -121 3 -267 7 -325 9 -544 18 -1623 24 -1877 12 -79 -4 -159 -13 -180
-20 -45 -14 -63 -52 -45 -92 16 -35 50 -47 172 -59 90 -9 328 -27 425 -31 114
-6 302 -14 430 -20 291 -12 381 -16 550 -20 99 -3 239 -7 310 -10 250 -8 960
-23 1159 -24 l108 -1 -6 -52 c-4 -29 -9 -62 -11 -73 -2 -11 -4 -26 -4 -34 -1
-10 -13 -12 -50 -7 -40 5 -54 2 -82 -17 -60 -40 -59 -67 4 -262 31 -93 57
-188 60 -210 2 -22 6 -47 8 -55 2 -8 -1 -14 -6 -13 -6 1 -87 5 -180 8 -94 4
-195 9 -225 10 -59 3 -381 16 -495 20 -736 27 -1451 25 -1557 -5 -62 -18 -88
-78 -50 -113 25 -23 87 -43 157 -51 33 -4 74 -9 90 -11 69 -9 196 -20 325 -29
47 -4 117 -9 155 -11 157 -11 215 -15 320 -20 61 -3 157 -7 215 -10 170 -9
483 -21 770 -30 559 -18 1450 -24 1654 -11 157 9 184 15 206 44 42 52 -5 106
-102 117 -35 4 -70 9 -78 10 -27 5 -124 14 -210 20 -47 3 -101 8 -120 10 -19
3 -87 7 -150 10 -63 4 -135 8 -160 10 -71 6 -291 18 -337 18 -24 0 -43 1 -43
2 0 26 48 112 117 212 121 175 121 175 118 216 -3 47 -36 84 -84 94 -20 4 -39
8 -43 9 -5 1 -12 2 -17 3 -5 0 -5 20 0 44 4 23 10 67 14 97 l6 55 707 0 c726
0 915 5 952 25 32 17 44 58 25 87 -9 13 -26 28 -38 32 -51 19 -330 36 -1062
66 -357 14 -434 17 -480 17 -65 1 -73 4 -70 32 5 45 27 211 31 229 2 10 6 48
9 85 3 37 8 74 10 82 2 8 7 41 10 73 4 32 8 67 10 77 2 10 6 45 10 77 3 32 7
67 10 78 2 11 4 23 4 26 1 3 434 5 964 5 1043 -1 1320 3 1353 22 44 24 38 93
-10 112 -42 16 -429 27 -1986 55 -162 3 -295 7 -296 8 -2 1 3 50 11 107 7 58
16 128 19 155 3 28 8 70 11 95 3 25 8 65 11 90 3 25 7 56 9 70 2 14 9 72 15
130 7 58 13 114 15 125 2 11 4 27 4 36 1 14 218 15 2249 15 l2247 0 3 62 3 62
-2242 0 -2241 0 6 65 c3 35 11 99 16 142 6 43 13 95 15 116 3 20 7 54 10 75
15 117 26 215 31 272 4 36 10 72 14 80 7 12 46 15 232 16 1928 12 3824 51
3923 80 54 16 73 75 36 108 -11 10 -44 20 -78 24 -127 14 -2242 5 -3148 -13
-121 -3 -383 -7 -583 -10 l-363 -5 6 33 c3 17 12 88 20 157 18 144 22 178 30
240 3 25 8 61 10 80 14 117 27 205 30 209 2 2 95 5 207 6 828 13 1884 41 2223
60 44 3 134 7 200 10 66 3 158 8 205 10 79 5 111 8 260 21 151 13 190 29 190
79 0 59 -35 78 -160 86 -111 6 -1257 4 -1600 -4 -418 -10 -629 -16 -815 -22
-82 -2 -251 -7 -375 -11 -124 -4 -243 -7 -265 -8 -50 -1 -51 -41 6 369 16 121
33 240 36 265 3 25 9 50 15 55 5 6 46 10 91 11 95 1 571 14 697 19 47 2 166 6
265 10 99 3 212 8 250 10 39 2 122 7 185 10 234 11 322 17 500 30 36 3 97 7
135 10 212 16 375 41 405 64 56 41 33 112 -43 127 -149 30 -1008 21 -2007 -21
-329 -14 -407 -18 -422 -20 -10 -2 -19 -1 -22 3 -2 4 2 45 10 92 8 47 16 103
19 125 13 88 77 470 79 473 2 1 74 4 162 7 167 5 345 13 479 20 44 2 134 7
200 10 66 3 140 8 165 10 25 2 86 6 135 10 50 3 113 8 140 10 28 3 75 7 105
10 154 13 190 17 250 26 165 24 220 50 220 103 0 49 -36 68 -155 81 -57 6
-595 7 -725 1 -47 -3 -166 -7 -265 -11 -99 -4 -207 -8 -240 -10 -33 -2 -112
-7 -175 -10 -63 -3 -146 -8 -183 -10 l-68 -4 4 27 c3 15 12 61 20 102 9 41 18
86 21 100 19 100 112 474 121 487 1 3 111 10 270 19 243 13 309 19 550 50 50
6 106 23 124 37 42 34 24 98 -34 117 -34 11 -376 15 -530 6 -251 -15 -305 -17
-305 -11 0 29 100 185 119 185 4 0 34 -24 66 -54 67 -63 61 -65 152 36 l52 57
-57 54 c-83 77 -105 97 -111 97 -3 0 -26 6 -51 14 -38 11 -53 11 -95 0z
m-2769 -8026 c3 -4 -1 -5 -10 -4 -8 1 -18 5 -22 8 -3 4 1 5 10 4 8 -1 18 -5
22 -8z m619 -14 c77 -3 169 -7 205 -9 36 -2 101 -4 144 -4 44 -1 77 -4 73 -7
-6 -7 -131 -6 -312 1 -60 3 -168 7 -240 9 -307 11 -450 19 -455 23 -5 5 292
-2 585 -13z m495 -25 c0 -4 -13 -6 -30 -5 -16 0 -30 4 -30 7 0 4 14 6 30 5 17
0 30 -4 30 -7z m88 -6 c-10 -2 -28 -2 -40 0 -13 2 -5 4 17 4 22 1 32 -1 23 -4z
m49 1 c-3 -3 -12 -4 -19 -1 -8 3 -5 6 6 6 11 1 17 -2 13 -5z"/>
<path d="M3739 2286 c-2 -2 -30 -6 -63 -10 -74 -8 -108 -24 -120 -58 -20 -58
23 -96 129 -113 28 -5 52 -9 55 -10 3 -1 34 -5 70 -9 36 -5 72 -10 80 -11 16
-3 115 -12 220 -20 36 -3 83 -7 105 -10 22 -2 85 -7 140 -10 55 -3 123 -8 150
-10 318 -25 941 -45 1365 -45 431 1 482 7 512 57 33 58 -13 102 -124 118 -21
3 -55 7 -75 10 -21 3 -51 7 -68 10 -16 2 -61 7 -100 10 -38 3 -88 7 -110 10
-61 6 -248 21 -375 30 -41 3 -106 7 -145 10 -38 3 -113 7 -165 10 -52 3 -124
7 -160 10 -36 2 -128 7 -205 11 -77 3 -171 8 -210 10 -106 5 -901 15 -906 10z
m954 -143 c-18 -2 -48 -2 -65 0 -18 2 -4 4 32 4 36 0 50 -2 33 -4z m170 -2
c43 -1 66 -5 62 -11 -4 -6 -10 -8 -14 -6 -4 3 -37 6 -74 7 -36 1 -72 6 -79 11
-8 5 -4 7 12 4 14 -3 56 -5 93 -5z m121 -12 c3 -3 -5 -5 -19 -5 -13 0 -22 3
-19 7 4 8 30 6 38 -2z m49 -6 c-7 -2 -19 -2 -25 0 -7 3 -2 5 12 5 14 0 19 -2
13 -5z m65 0 c-10 -2 -26 -2 -35 0 -10 3 -2 5 17 5 19 0 27 -2 18 -5z"/>
<path d="M4377 1294 c-1 -1 -30 -4 -65 -7 -100 -8 -143 -58 -99 -115 25 -32
144 -57 357 -77 36 -3 83 -8 105 -10 22 -3 90 -7 150 -11 61 -3 126 -8 145
-10 59 -7 633 -13 668 -7 48 8 91 52 85 87 -9 44 -56 64 -193 82 -19 2 -48 6
-65 8 -16 3 -66 8 -109 11 -44 4 -87 8 -96 10 -8 2 -63 6 -120 10 -58 4 -121
8 -140 10 -88 9 -616 25 -623 19z"/>
</g>
</svg>
